<svg width="16" height="16" viewBox="0 0 16 16" fill="none" xmlns="http://www.w3.org/2000/svg">
<circle cx="8" cy="8" r="8" fill="#F96060"/>
<path fill-rule="evenodd" clip-rule="evenodd" d="M12.84 5.50698L12.5124 5.16614C12.4095 5.05896 12.2723 5 12.1258 5C11.9793 5 11.842 5.05896 11.739 5.16614L7.13635 9.95523L4.26065 6.96294C4.15772 6.85593 4.02041 6.79688 3.8739 6.79688C3.72748 6.79688 3.59024 6.85593 3.48724 6.96294L3.15959 7.30369C3.05659 7.41104 3 7.55401 3 7.70628C3 7.85863 3.05659 8.00151 3.15959 8.1087L6.40643 11.4869C6.41074 11.4933 6.41529 11.4992 6.42057 11.5046L6.74822 11.8398C6.85114 11.9466 6.98846 12 7.1361 12H7.13781C7.28439 12 7.42171 11.9466 7.52448 11.8398L7.8522 11.5016C7.85748 11.4962 7.86196 11.4917 7.86464 11.4872L12.8399 6.3108C13.0533 6.08924 13.0533 5.72879 12.84 5.50698" fill="white"/>
</svg>
