<svg width="14" height="9" viewBox="0 0 14 9" fill="none" xmlns="http://www.w3.org/2000/svg">
<path fill-rule="evenodd" clip-rule="evenodd" d="M13.6603 6.58073L7.21712 0.138393C7.12506 0.0463325 7.019 -0.00012207 6.89894 -0.00012207C6.77952 -0.00012207 6.67346 0.0463325 6.58076 0.138393L0.138213 6.58073C0.0463645 6.67342 0.00012207 6.77948 0.00012207 6.89891C0.00012207 7.01897 0.0463645 7.12503 0.138213 7.21709L0.829516 7.90797C0.921364 8.00003 1.02743 8.04648 1.1477 8.04648C1.26712 8.04648 1.37318 8.00003 1.46588 7.90797L6.89894 2.47491L12.3328 7.90797C12.4249 8.00088 12.531 8.04648 12.6502 8.04648C12.7705 8.04648 12.8765 8.00003 12.9684 7.90797L13.6603 7.21709C13.7524 7.12503 13.7978 7.01897 13.7978 6.89891C13.7978 6.77948 13.7524 6.67342 13.6603 6.58073Z" fill="#8E8E93"/>
</svg>
