<svg width="14" height="9" viewBox="0 0 14 9" fill="none" xmlns="http://www.w3.org/2000/svg">
<path fill-rule="evenodd" clip-rule="evenodd" d="M13.6603 2.41927L7.21712 8.86161C7.12506 8.95367 7.019 9.00012 6.89894 9.00012C6.77952 9.00012 6.67346 8.95367 6.58076 8.86161L0.138213 2.41927C0.0463645 2.32658 0.00012207 2.22052 0.00012207 2.10109C0.00012207 1.98103 0.0463645 1.87497 0.138213 1.78291L0.829516 1.09203C0.921364 0.99997 1.02743 0.953516 1.1477 0.953516C1.26712 0.953516 1.37318 0.99997 1.46588 1.09203L6.89894 6.52509L12.3328 1.09203C12.4249 0.999122 12.531 0.953516 12.6502 0.953516C12.7705 0.953516 12.8765 0.99997 12.9684 1.09203L13.6603 1.78291C13.7524 1.87497 13.7978 1.98103 13.7978 2.10109C13.7978 2.22052 13.7524 2.32658 13.6603 2.41927Z" fill="#8E8E93"/>
</svg>
