<svg width="20" height="21" viewBox="0 0 20 21" fill="none" xmlns="http://www.w3.org/2000/svg">
<mask id="mask0" mask-type="alpha" maskUnits="userSpaceOnUse" x="0" y="0" width="20" height="21">
<path fill-rule="evenodd" clip-rule="evenodd" d="M0 0.420288H19.6096V20.9556H0V0.420288Z" fill="white"/>
</mask>
<g mask="url(#mask0)">
<path fill-rule="evenodd" clip-rule="evenodd" d="M1.50341 19.4522C0.533659 18.4844 0 17.1902 0 15.8107C0 14.4312 0.533659 13.1395 1.50341 12.1697L12.1551 1.51804C13.6776 -0.00489044 16.0463 0.06389 17.662 1.67999C19.278 3.2956 19.3483 5.66243 17.8239 7.18682L7.81805 17.1941C6.87902 18.1336 5.34878 18.1336 4.40732 17.1941C3.4678 16.2532 3.4678 14.7229 4.40732 13.7834L11.1854 7.00584C11.4141 6.77706 11.7854 6.77706 12.0141 7.00584C12.2429 7.23413 12.2429 7.60389 12.0141 7.83267L5.2361 14.6122C4.75219 15.0946 4.75219 15.8815 5.2361 16.3654C5.72049 16.8493 6.50732 16.8493 6.98927 16.3654L16.9971 6.3595C18.0488 5.30779 17.9785 3.65218 16.8351 2.50682C15.6898 1.3634 14.0341 1.29511 12.982 2.34682L2.33024 12.9985C1.58341 13.7454 1.16976 14.7463 1.16976 15.8107C1.16976 16.878 1.58341 17.8766 2.33024 18.6254C3.07902 19.3741 4.07756 19.7858 5.14488 19.7858C6.21171 19.7858 7.21024 19.3741 7.95902 18.6254L18.6107 7.97365C18.8395 7.74487 19.2093 7.74487 19.438 7.97365C19.6668 8.20243 19.6668 8.57218 19.438 8.80048L8.78634 19.4522C7.81805 20.4219 6.52439 20.9556 5.14488 20.9556C3.76537 20.9556 2.47122 20.4219 1.50341 19.4522Z" fill="#8E8E93"/>
</g>
</svg>
