<svg width="19" height="24" viewBox="0 0 19 24" fill="none" xmlns="http://www.w3.org/2000/svg">
<path fill-rule="evenodd" clip-rule="evenodd" d="M10.6334 1.40625L10.4672 0.937969C10.2681 0.376969 9.73528 0 9.14062 0C8.54597 0 8.01314 0.376969 7.81406 0.937969L7.64784 1.40625H6.32812C5.55145 1.40625 4.92188 2.03583 4.92188 2.8125V3.51562C4.92188 3.90394 5.23669 4.21875 5.625 4.21875H12.6562C13.0446 4.21875 13.3594 3.90394 13.3594 3.51562V2.8125C13.3594 2.03583 12.7298 1.40625 11.9531 1.40625H10.6334Z" fill="#8E8E93"/>
<path fill-rule="evenodd" clip-rule="evenodd" d="M14.7656 9.84375H10.5469C10.1582 9.84375 9.84375 9.52927 9.84375 9.14062C9.84375 8.75198 10.1582 8.4375 10.5469 8.4375H14.7656C15.1543 8.4375 15.4688 8.75198 15.4688 9.14062C15.4688 9.52927 15.1543 9.84375 14.7656 9.84375ZM14.7656 14.7656H10.5469C10.1582 14.7656 9.84375 14.4511 9.84375 14.0625C9.84375 13.6739 10.1582 13.3594 10.5469 13.3594H14.7656C15.1543 13.3594 15.4688 13.6739 15.4688 14.0625C15.4688 14.4511 15.1543 14.7656 14.7656 14.7656ZM14.7656 19.6875H10.5469C10.1582 19.6875 9.84375 19.373 9.84375 18.9844C9.84375 18.5957 10.1582 18.2812 10.5469 18.2812H14.7656C15.1543 18.2812 15.4688 18.5957 15.4688 18.9844C15.4688 19.373 15.1543 19.6875 14.7656 19.6875ZM8.23148 8.23148L5.41898 11.044C5.28164 11.1813 5.10173 11.25 4.92188 11.25C4.74202 11.25 4.56206 11.1813 4.42477 11.044L3.01852 9.63773C2.74387 9.36309 2.74387 8.91811 3.01852 8.64347C3.29316 8.36883 3.73814 8.36883 4.01278 8.64347L4.92188 9.55261L7.23727 7.23722C7.51191 6.96258 7.95689 6.96258 8.23153 7.23722C8.50617 7.51186 8.50617 7.95684 8.23148 8.23148ZM8.23148 13.1534L5.41898 15.9659C5.28164 16.1032 5.10173 16.1719 4.92188 16.1719C4.74202 16.1719 4.56206 16.1032 4.42477 15.9659L3.01852 14.5596C2.74387 14.285 2.74387 13.84 3.01852 13.5653C3.29316 13.2907 3.73814 13.2907 4.01278 13.5653L4.92188 14.4745L7.23727 12.1591C7.51191 11.8845 7.95689 11.8845 8.23153 12.1591C8.50617 12.4337 8.50617 12.8787 8.23148 13.1534ZM8.23148 18.0752L5.41898 20.8877C5.28164 21.0251 5.10173 21.0938 4.92188 21.0938C4.74202 21.0938 4.56206 21.0251 4.42477 20.8877L3.01852 19.4815C2.74387 19.2068 2.74387 18.7619 3.01852 18.4872C3.29316 18.2126 3.73814 18.2126 4.01278 18.4872L4.92188 19.3964L7.23727 17.081C7.51191 16.8063 7.95689 16.8063 8.23153 17.081C8.50617 17.3556 8.50617 17.8006 8.23148 18.0752ZM16.1719 2.8125H14.7656V3.51562C14.7656 4.67878 13.8194 5.625 12.6562 5.625H5.625C4.46184 5.625 3.51562 4.67878 3.51562 3.51562V2.8125H2.10938C0.946219 2.8125 0 3.75872 0 4.92188V21.7969C0 22.96 0.946219 24 2.10938 24H16.1719C17.335 24 18.2812 22.96 18.2812 21.7969V4.92188C18.2812 3.75872 17.335 2.8125 16.1719 2.8125Z" fill="#8E8E93"/>
</svg>
