<svg width="19" height="22" viewBox="0 0 19 22" fill="none" xmlns="http://www.w3.org/2000/svg">
<path fill-rule="evenodd" clip-rule="evenodd" d="M14.7656 7.84375H10.5469C10.1582 7.84375 9.84375 7.52927 9.84375 7.14062C9.84375 6.75198 10.1582 6.4375 10.5469 6.4375H14.7656C15.1543 6.4375 15.4688 6.75198 15.4688 7.14062C15.4688 7.52927 15.1543 7.84375 14.7656 7.84375ZM14.7656 12.7656H10.5469C10.1582 12.7656 9.84375 12.4511 9.84375 12.0625C9.84375 11.6739 10.1582 11.3594 10.5469 11.3594H14.7656C15.1543 11.3594 15.4688 11.6739 15.4688 12.0625C15.4688 12.4511 15.1543 12.7656 14.7656 12.7656ZM14.7656 17.6875H10.5469C10.1582 17.6875 9.84375 17.373 9.84375 16.9844C9.84375 16.5957 10.1582 16.2812 10.5469 16.2812H14.7656C15.1543 16.2812 15.4688 16.5957 15.4688 16.9844C15.4688 17.373 15.1543 17.6875 14.7656 17.6875ZM8.23148 6.23148L5.41898 9.04398C5.28164 9.18133 5.10173 9.25 4.92188 9.25C4.74202 9.25 4.56206 9.18133 4.42477 9.04398L3.01852 7.63773C2.74387 7.36309 2.74387 6.91811 3.01852 6.64347C3.29316 6.36883 3.73814 6.36883 4.01278 6.64347L4.92188 7.55261L7.23727 5.23722C7.51191 4.96258 7.95689 4.96258 8.23153 5.23722C8.50617 5.51186 8.50617 5.95684 8.23148 6.23148ZM8.23148 11.1534L5.41898 13.9659C5.28164 14.1032 5.10173 14.1719 4.92188 14.1719C4.74202 14.1719 4.56206 14.1032 4.42477 13.9659L3.01852 12.5596C2.74387 12.285 2.74387 11.84 3.01852 11.5653C3.29316 11.2907 3.73814 11.2907 4.01278 11.5653L4.92188 12.4745L7.23727 10.1591C7.51191 9.88445 7.95689 9.88445 8.23153 10.1591C8.50617 10.4337 8.50617 10.8787 8.23148 11.1534ZM8.23148 16.0752L5.41898 18.8877C5.28164 19.0251 5.10173 19.0938 4.92188 19.0938C4.74202 19.0938 4.56206 19.0251 4.42477 18.8877L3.01852 17.4815C2.74387 17.2068 2.74387 16.7619 3.01852 16.4872C3.29316 16.2126 3.73814 16.2126 4.01278 16.4872L4.92188 17.3964L7.23727 15.081C7.51191 14.8063 7.95689 14.8063 8.23153 15.081C8.50617 15.3556 8.50617 15.8006 8.23148 16.0752ZM16.1719 0.8125H14.7656V1.51562C14.7656 2.67878 13.8194 3.625 12.6562 3.625H5.625C4.46184 3.625 3.51562 2.67878 3.51562 1.51562V0.8125H2.10938C0.946219 0.8125 0 1.75872 0 2.92188V19.7969C0 20.96 0.946219 22 2.10938 22H16.1719C17.335 22 18.2812 20.96 18.2812 19.7969V2.92188C18.2812 1.75872 17.335 0.8125 16.1719 0.8125Z" fill="#8E8E93"/>
</svg>
