<svg width="10" height="7" viewBox="0 0 10 7" fill="none" xmlns="http://www.w3.org/2000/svg">
<mask id="mask0" mask-type="alpha" maskUnits="userSpaceOnUse" x="0" y="0" width="10" height="7">
<path fill-rule="evenodd" clip-rule="evenodd" d="M0 0H9.99998V6.7274H0V0Z" fill="white"/>
</mask>
<g mask="url(#mask0)">
<path fill-rule="evenodd" clip-rule="evenodd" d="M9.84 0.487236L9.51244 0.159675C9.40951 0.0566667 9.27228 0 9.12577 0C8.97927 0 8.84195 0.0566667 8.73902 0.159675L4.13634 4.76228L1.26065 1.8865C1.15772 1.78366 1.02041 1.72691 0.873902 1.72691C0.72748 1.72691 0.590244 1.78366 0.487236 1.8865L0.159593 2.21398C0.0565854 2.31715 0 2.45455 0 2.60089C0 2.74732 0.0565854 2.88463 0.159593 2.98764L3.40642 6.23431C3.41073 6.24043 3.41528 6.2461 3.42057 6.2513L3.74821 6.5735C3.85114 6.6761 3.98846 6.72742 4.1361 6.72742H4.1378C4.28439 6.72742 4.42171 6.6761 4.52447 6.5735L4.8522 6.24846C4.85748 6.24325 4.86195 6.23894 4.86463 6.23457L9.83992 1.25976C10.0533 1.04683 10.0533 0.700407 9.84 0.487236Z" fill="#8E8E93"/>
</g>
</svg>
