<svg width="24" height="24" viewBox="0 0 24 24" fill="none" xmlns="http://www.w3.org/2000/svg">
<mask id="mask0" mask-type="alpha" maskUnits="userSpaceOnUse" x="0" y="0" width="11" height="11">
<path fill-rule="evenodd" clip-rule="evenodd" d="M0 0.0843506H10.5822V10.6665H0V0.0843506Z" fill="white"/>
</mask>
<g mask="url(#mask0)">
<path fill-rule="evenodd" clip-rule="evenodd" d="M9.70035 0.0843506H0.88185C0.394803 0.0843506 0 0.479153 0 0.9662V9.7847C0 10.2717 0.394803 10.6665 0.88185 10.6665H9.70035C10.1874 10.6665 10.5822 10.2717 10.5822 9.7847V0.9662C10.5822 0.479153 10.1874 0.0843506 9.70035 0.0843506Z" fill="#8E8E93"/>
</g>
<mask id="mask1" mask-type="alpha" maskUnits="userSpaceOnUse" x="12" y="0" width="11" height="11">
<path fill-rule="evenodd" clip-rule="evenodd" d="M12.3459 0.0843506H22.928V10.6665H12.3459V0.0843506Z" fill="white"/>
</mask>
<g mask="url(#mask1)">
<path fill-rule="evenodd" clip-rule="evenodd" d="M13.2278 0.0843506C12.7407 0.0843506 12.3459 0.479153 12.3459 0.9662V9.7847C12.3459 10.2717 12.7407 10.6665 13.2278 10.6665H22.0462C22.5333 10.6665 22.9281 10.2717 22.9281 9.7847V0.9662C22.9281 0.479153 22.5333 0.0843506 22.0462 0.0843506H13.2278Z" fill="#8E8E93"/>
</g>
<mask id="mask2" mask-type="alpha" maskUnits="userSpaceOnUse" x="0" y="12" width="11" height="12">
<path fill-rule="evenodd" clip-rule="evenodd" d="M0 12.4302H10.5822V23.0123H0V12.4302Z" fill="white"/>
</mask>
<g mask="url(#mask2)">
<path fill-rule="evenodd" clip-rule="evenodd" d="M9.70035 12.4302H0.88185C0.394803 12.4302 0 12.825 0 13.312V22.1304C0 22.6175 0.394803 23.0124 0.88185 23.0124H9.70035C10.1874 23.0124 10.5822 22.6175 10.5822 22.1304V13.312C10.5822 12.825 10.1874 12.4302 9.70035 12.4302Z" fill="#8E8E93"/>
</g>
<mask id="mask3" mask-type="alpha" maskUnits="userSpaceOnUse" x="12" y="12" width="11" height="12">
<path fill-rule="evenodd" clip-rule="evenodd" d="M12.3459 12.4302H22.928V23.0123H12.3459V12.4302Z" fill="white"/>
</mask>
<g mask="url(#mask3)">
<path fill-rule="evenodd" clip-rule="evenodd" d="M22.0462 12.4302H13.2278C12.7407 12.4302 12.3459 12.825 12.3459 13.312V22.1304C12.3459 22.6175 12.7407 23.0124 13.2278 23.0124H22.0462C22.5333 23.0124 22.9281 22.6175 22.9281 22.1304V13.312C22.9281 12.825 22.5333 12.4302 22.0462 12.4302Z" fill="#8E8E93"/>
</g>
</svg>
