<svg width="24" height="24" viewBox="0 0 24 24" fill="none" xmlns="http://www.w3.org/2000/svg">
<mask id="mask0" mask-type="alpha" maskUnits="userSpaceOnUse" x="0" y="0" width="11" height="11">
<path fill-rule="evenodd" clip-rule="evenodd" d="M0 0.0844727H10.5822V10.6666H0V0.0844727Z" fill="white"/>
</mask>
<g mask="url(#mask0)">
<path fill-rule="evenodd" clip-rule="evenodd" d="M9.70035 0.0844727H0.88185C0.394803 0.0844727 0 0.479275 0 0.966322V9.78482C0 10.2719 0.394803 10.6667 0.88185 10.6667H9.70035C10.1874 10.6667 10.5822 10.2719 10.5822 9.78482V0.966322C10.5822 0.479275 10.1874 0.0844727 9.70035 0.0844727Z" fill="#8E8E93"/>
</g>
<mask id="mask1" mask-type="alpha" maskUnits="userSpaceOnUse" x="12" y="0" width="11" height="11">
<path fill-rule="evenodd" clip-rule="evenodd" d="M12.3459 0.0844727H22.928V10.6666H12.3459V0.0844727Z" fill="white"/>
</mask>
<g mask="url(#mask1)">
<path fill-rule="evenodd" clip-rule="evenodd" d="M13.2278 0.0844727C12.7407 0.0844727 12.3459 0.479275 12.3459 0.966322V9.78482C12.3459 10.2719 12.7407 10.6667 13.2278 10.6667H22.0462C22.5333 10.6667 22.9281 10.2719 22.9281 9.78482V0.966322C22.9281 0.479275 22.5333 0.0844727 22.0462 0.0844727H13.2278Z" fill="#8E8E93"/>
</g>
<mask id="mask2" mask-type="alpha" maskUnits="userSpaceOnUse" x="0" y="12" width="11" height="12">
<path fill-rule="evenodd" clip-rule="evenodd" d="M0 12.4304H10.5822V23.0126H0V12.4304Z" fill="white"/>
</mask>
<g mask="url(#mask2)">
<path fill-rule="evenodd" clip-rule="evenodd" d="M9.70035 12.4304H0.88185C0.394803 12.4304 0 12.8252 0 13.3123V22.1307C0 22.6177 0.394803 23.0126 0.88185 23.0126H9.70035C10.1874 23.0126 10.5822 22.6177 10.5822 22.1307V13.3123C10.5822 12.8252 10.1874 12.4304 9.70035 12.4304Z" fill="#8E8E93"/>
</g>
<mask id="mask3" mask-type="alpha" maskUnits="userSpaceOnUse" x="12" y="12" width="11" height="12">
<path fill-rule="evenodd" clip-rule="evenodd" d="M12.3459 12.4304H22.928V23.0126H12.3459V12.4304Z" fill="white"/>
</mask>
<g mask="url(#mask3)">
<path fill-rule="evenodd" clip-rule="evenodd" d="M22.0462 12.4304H13.2278C12.7407 12.4304 12.3459 12.8252 12.3459 13.3123V22.1307C12.3459 22.6177 12.7407 23.0126 13.2278 23.0126H22.0462C22.5333 23.0126 22.9281 22.6177 22.9281 22.1307V13.3123C22.9281 12.8252 22.5333 12.4304 22.0462 12.4304Z" fill="#8E8E93"/>
</g>
</svg>
