<svg width="23" height="24" viewBox="0 0 23 24" fill="none" xmlns="http://www.w3.org/2000/svg">
<path fill-rule="evenodd" clip-rule="evenodd" d="M1.68791e-05 0.0844012H10.5822V10.6665H1.68791e-05V0.0844012Z" fill="#8E8E93"/>
<path fill-rule="evenodd" clip-rule="evenodd" d="M9.70035 0.0843506H0.88185C0.394803 0.0843506 0 0.479153 0 0.9662V9.7847C0 10.2717 0.394803 10.6665 0.88185 10.6665H9.70035C10.1874 10.6665 10.5822 10.2717 10.5822 9.7847V0.9662C10.5822 0.479153 10.1874 0.0843506 9.70035 0.0843506Z" fill="#8E8E93"/>
<path fill-rule="evenodd" clip-rule="evenodd" d="M12.3459 0.0844012H22.928V10.6665H12.3459V0.0844012Z" fill="#8E8E93"/>
<path fill-rule="evenodd" clip-rule="evenodd" d="M13.2278 0.0843506C12.7407 0.0843506 12.3459 0.479153 12.3459 0.9662V9.7847C12.3459 10.2717 12.7407 10.6665 13.2278 10.6665H22.0462C22.5333 10.6665 22.9281 10.2717 22.9281 9.7847V0.9662C22.9281 0.479153 22.5333 0.0843506 22.0462 0.0843506H13.2278Z" fill="#8E8E93"/>
<path fill-rule="evenodd" clip-rule="evenodd" d="M1.68791e-05 12.4303H10.5822V23.0124H1.68791e-05V12.4303Z" fill="#8E8E93"/>
<path fill-rule="evenodd" clip-rule="evenodd" d="M9.70035 12.4303H0.88185C0.394803 12.4303 0 12.8251 0 13.3121V22.1305C0 22.6176 0.394803 23.0125 0.88185 23.0125H9.70035C10.1874 23.0125 10.5822 22.6176 10.5822 22.1305V13.3121C10.5822 12.8251 10.1874 12.4303 9.70035 12.4303Z" fill="#8E8E93"/>
<path fill-rule="evenodd" clip-rule="evenodd" d="M12.3459 12.4303H22.928V23.0124H12.3459V12.4303Z" fill="#8E8E93"/>
<path fill-rule="evenodd" clip-rule="evenodd" d="M22.0462 12.4303H13.2278C12.7407 12.4303 12.3459 12.8251 12.3459 13.3121V22.1305C12.3459 22.6176 12.7407 23.0125 13.2278 23.0125H22.0462C22.5333 23.0125 22.9281 22.6176 22.9281 22.1305V13.3121C22.9281 12.8251 22.5333 12.4303 22.0462 12.4303Z" fill="#8E8E93"/>
</svg>
