<svg width="20" height="20" viewBox="0 0 20 20" fill="none" xmlns="http://www.w3.org/2000/svg">
<path fill-rule="evenodd" clip-rule="evenodd" d="M4.99858 11.4254C4.20983 11.4254 3.57042 10.786 3.57042 9.99722C3.57042 9.20847 4.20983 8.56906 4.99858 8.56906C5.78736 8.56906 6.42674 9.20847 6.42674 9.99722C6.42674 10.786 5.78736 11.4254 4.99858 11.4254M19.2803 9.28311H7.75351C7.36628 7.76165 5.81891 6.84211 4.29741 7.22939C3.28837 7.48621 2.50046 8.27412 2.24364 9.28311H0.714059C0.319665 9.28311 0 9.60282 0 9.99722C0 10.3916 0.319665 10.7113 0.714059 10.7113H2.24364C2.63088 12.2328 4.17828 13.1523 5.69975 12.7651C6.70883 12.5083 7.49674 11.7204 7.75351 10.7113H19.2803C19.6747 10.7113 19.9944 10.3916 19.9944 9.99722C19.9944 9.60282 19.6747 9.28311 19.2803 9.28311" fill="white"/>
<mask id="mask0" mask-type="alpha" maskUnits="userSpaceOnUse" x="0" y="0" width="20" height="6">
<path fill-rule="evenodd" clip-rule="evenodd" d="M0 0H19.9944V5.7127H0V0Z" fill="white"/>
</mask>
<g mask="url(#mask0)">
<path fill-rule="evenodd" clip-rule="evenodd" d="M14.2817 4.28455C13.4929 4.28455 12.8535 3.64513 12.8535 2.85639C12.8535 2.0676 13.4929 1.42819 14.2817 1.42819C15.0705 1.42819 15.7099 2.0676 15.7099 2.85639C15.7099 3.64513 15.0705 4.28455 14.2817 4.28455M19.2803 2.14229H17.0367C16.6494 0.620781 15.102 -0.298759 13.5805 0.0885216C12.5715 0.345342 11.7836 1.13325 11.5267 2.14229H0.714059C0.319665 2.14229 0 2.46199 0 2.85639C0 3.25074 0.319665 3.57045 0.714059 3.57045H11.5267C11.914 5.09195 13.4614 6.01145 14.9829 5.62421C15.9919 5.36739 16.7798 4.57948 17.0367 3.57045H19.2803C19.6747 3.57045 19.9944 3.25074 19.9944 2.85639C19.9944 2.46199 19.6747 2.14229 19.2803 2.14229" fill="white"/>
</g>
<mask id="mask1" mask-type="alpha" maskUnits="userSpaceOnUse" x="0" y="14" width="20" height="6">
<path fill-rule="evenodd" clip-rule="evenodd" d="M0 14.2817H19.9944V19.9944H0V14.2817Z" fill="white"/>
</mask>
<g mask="url(#mask1)">
<path fill-rule="evenodd" clip-rule="evenodd" d="M12.8536 18.5662C12.0648 18.5662 11.4254 17.9268 11.4254 17.1381C11.4254 16.3493 12.0648 15.7099 12.8536 15.7099C13.6423 15.7099 14.2818 16.3493 14.2818 17.1381C14.2818 17.9268 13.6423 18.5662 12.8536 18.5662M19.2803 16.424H15.6085C15.2213 14.9025 13.6738 13.983 12.1524 14.3703C11.1433 14.6271 10.3554 15.415 10.0986 16.424H0.7141C0.319707 16.424 0 16.7437 0 17.1381C0 17.5325 0.319707 17.8522 0.7141 17.8522H10.0986C10.4859 19.3737 12.0333 20.2931 13.5548 19.906C14.5638 19.6491 15.3517 18.8612 15.6085 17.8522H19.2803C19.6747 17.8522 19.9944 17.5325 19.9944 17.1381C19.9944 16.7437 19.6747 16.424 19.2803 16.424" fill="white"/>
</g>
</svg>
