<svg width="16" height="16" viewBox="0 0 16 16" fill="none" xmlns="http://www.w3.org/2000/svg">
<path fill-rule="evenodd" clip-rule="evenodd" d="M15.673 3.3541L12.637 0.314847C12.2178 -0.104949 11.5381 -0.104949 11.119 0.314847L10.3599 1.07444C9.94078 1.49416 9.94078 2.17442 10.3599 2.59421L13.396 5.6334C13.8152 6.05289 14.4948 6.05289 14.914 5.6334L15.673 4.87358C16.0922 4.45379 16.0922 3.77353 15.673 3.3541ZM6.15041 13.0845C6.14573 13.0878 6.13933 13.0919 6.13255 13.0962C6.12883 13.0985 6.12444 13.1012 6.12005 13.1041C6.11581 13.107 6.11075 13.1099 6.10561 13.1131C6.10093 13.1157 6.09631 13.1185 6.0911 13.1217C5.91436 13.2276 5.39566 13.5006 4.13665 13.9564C3.98952 14.0096 3.82945 14.066 3.66141 14.1241L1.87179 12.3326C1.93036 12.1636 1.98662 12.0021 2.0402 11.854C2.49475 10.5898 2.76757 10.0695 2.8728 9.89304C2.8754 9.88865 2.87771 9.88486 2.88001 9.88113C2.88381 9.87503 2.88723 9.86908 2.89043 9.86395C2.89281 9.85985 2.89572 9.85583 2.8978 9.85233C2.90212 9.84564 2.90614 9.83924 2.90934 9.83462L3.04046 9.7032L6.284 12.9503L6.15041 13.0845ZM9.60091 3.3541C9.18171 2.93431 8.50212 2.93431 8.08292 3.3541L7.7036 3.73371L2.39049 9.05263L2.39168 9.05375L2.22424 9.22179C2.22424 9.22179 1.69043 9.75961 0.485 13.6512C0.476442 13.6782 0.468107 13.7052 0.459623 13.7328C0.438191 13.8026 0.416312 13.8735 0.394507 13.9454C0.375084 14.0087 0.355214 14.0735 0.335865 14.1386C0.318972 14.1936 0.3026 14.2479 0.285782 14.3041C0.247456 14.4317 0.208833 14.5613 0.169168 14.6951C0.0825444 14.9889 -0.128953 15.6518 0.110451 15.8919C0.340777 16.123 1.01054 15.9195 1.3036 15.8325C1.43637 15.7933 1.56511 15.7546 1.69162 15.7166C1.75012 15.6988 1.80667 15.6817 1.86398 15.6642C1.92537 15.6454 1.98632 15.627 2.0463 15.6084C2.12191 15.5852 2.19633 15.5625 2.26956 15.5396C2.29136 15.5329 2.31287 15.5262 2.33438 15.5195C6.037 14.3666 6.70186 13.8253 6.757 13.7758C6.7573 13.7756 6.7573 13.7756 6.75767 13.7753C6.7599 13.7732 6.76161 13.7718 6.76161 13.7718L6.93293 13.6L6.94446 13.6114L12.2576 8.29274L12.637 7.91276C13.0562 7.49334 13.0562 6.81278 12.637 6.39328L9.60091 3.3541Z" fill="#F96060"/>
</svg>
