<svg width="19" height="24" viewBox="0 0 19 24" fill="none" xmlns="http://www.w3.org/2000/svg">
<path fill-rule="evenodd" clip-rule="evenodd" d="M9.12721 11.7375C11.7954 11.7375 13.9591 9.11014 13.9591 5.86877C13.9591 2.62766 13.2486 0 9.12721 0C5.00555 0 4.29541 2.62766 4.29541 5.86877C4.29541 9.11014 6.45875 11.7375 9.12721 11.7375Z" fill="#8E8E93"/>
<path fill-rule="evenodd" clip-rule="evenodd" d="M0.00609101 21.0969C9.10088e-05 20.1237 -0.00390899 20.8233 0.00609101 21.0969V21.0969Z" fill="#231F20"/>
<path fill-rule="evenodd" clip-rule="evenodd" d="M11.773 12.1877C11.773 12.1877 10.9784 13.1999 9.12715 13.1999C7.27563 13.1999 6.48106 12.1877 6.48106 12.1877C0.899948 13.1952 0.117462 14.7803 0.0146908 20.278C0.00629085 20.727 0.00226228 20.7504 0.000976562 20.6982C0.00131942 20.7959 0.00166228 20.9768 0.00166228 21.2915C0.00166228 21.2915 1.34489 23.9999 9.12715 23.9999C16.9091 23.9999 18.2524 21.2915 18.2524 21.2915C18.2524 21.0893 18.2527 20.9487 18.2527 20.8529C18.2514 20.885 18.2483 20.8224 18.2427 20.4615C18.1533 14.8151 17.4157 13.2062 11.773 12.1877Z" fill="#8E8E93"/>
</svg>
