<svg width="19" height="24" viewBox="0 0 19 24" fill="none" xmlns="http://www.w3.org/2000/svg">
<path fill-rule="evenodd" clip-rule="evenodd" d="M9.12721 11.7375C11.7954 11.7375 13.9591 9.11014 13.9591 5.86877C13.9591 2.62766 13.2486 0 9.12721 0C5.00555 0 4.29541 2.62766 4.29541 5.86877C4.29541 9.11014 6.45875 11.7375 9.12721 11.7375Z" fill="#8E8E93"/>
<path fill-rule="evenodd" clip-rule="evenodd" d="M0.00609101 21.0968C9.10088e-05 20.1236 -0.00390899 20.8232 0.00609101 21.0968V21.0968Z" fill="#231F20"/>
<path fill-rule="evenodd" clip-rule="evenodd" d="M11.7731 12.1879C11.7731 12.1879 10.9785 13.2 9.12727 13.2C7.27576 13.2 6.48118 12.1879 6.48118 12.1879C0.90007 13.1954 0.117584 14.7804 0.0148129 20.2781C0.00641292 20.7272 0.00238435 20.7506 0.00109863 20.6984C0.00144149 20.7961 0.00178435 20.9769 0.00178435 21.2917C0.00178435 21.2917 1.34501 24 9.12727 24C16.9092 24 18.2525 21.2917 18.2525 21.2917C18.2525 21.0894 18.2528 20.9488 18.2528 20.853C18.2516 20.8851 18.2485 20.8226 18.2428 20.4616C18.1534 14.8152 17.4158 13.2063 11.7731 12.1879Z" fill="#8E8E93"/>
</svg>
