<svg width="15" height="20" viewBox="0 0 15 20" fill="none" xmlns="http://www.w3.org/2000/svg">
<path fill-rule="evenodd" clip-rule="evenodd" d="M3.90125 15.9325H5.1225V6.23125H3.90125V15.9325ZM6.85 15.9325H8.07125V6.23125H6.85V15.9325ZM10.1275 15.9325H11.3488V6.23125H10.1275V15.9325ZM0.596252 4.4925C0.596252 4.4925 1.11375 4.98125 1.11375 5.26875V17.8375C1.11375 18.6675 1.84625 19.3412 2.75375 19.3412H12.1188C13.0275 19.3412 13.76 18.6675 13.76 17.8375V5.26875C13.76 4.98125 14.2775 4.4925 14.2775 4.4925V2.96875H0.596252V4.4925Z" fill="#F96060"/>
<path fill-rule="evenodd" clip-rule="evenodd" d="M5.06351 1.71024C5.21976 1.36774 5.59101 1.12399 6.01976 1.12399H8.85226C9.28226 1.12399 9.65351 1.36774 9.80976 1.71024H5.06351ZM14.8735 1.71024H11.0835C10.8935 0.742744 9.96601 0.000244141 8.85226 0.000244141H6.02476C4.90726 0.000244141 3.97976 0.742744 3.79351 1.71024H-0.000244141V2.64274H14.8735V1.71024Z" fill="#F96060"/>
</svg>
